#!OML:ASF X:\für Bonn\!DataBase\2005_08_12_Daniel\c3d\Daniel.ASF
:FULLY-SPECIFIED
:DEGREES
176
root 15.5614 3.34619 -0.0184559 -1618.18 252.314 124.156
lowerback 78.6768 -3.29273 11.6866
upperback 14.2363 -0.850115 -8.36996
thorax -4.35714 -0.860384 -14.0389
lowerneck 6.83855 7.84513 -7.22962
upperneck 10.1674 10.0553 -8.09676
head 2.19092 4.38367 -1.41456
rclavicle -3.81667e-014 -9.54166e-015
rhumerus -423.996 51.8167 267.307
rradius 51.0654
rwrist 28.863
rhand -31.4433 752.087
rfingers 7.12502
rthumb -4.71119 722.159
lclavicle -3.81667e-014 -9.54166e-015
lhumerus -552.74 164.544 -465.702
lradius 36.6124
lwrist -20.941
lhand -68.3634 -754.518
lfingers 7.12502
lthumb -40.0712 -9.31353
rfemur -641.123 -141.102 597.368
rtibia 121.648
rfoot 10.033 -5.2391
rtoes 22.033
lfemur 90.3893 43.8725 120.513
ltibia 142.86
lfoot 47.2853 -46.0215
ltoes 26.4934
177
root 15.6636 3.24556 0.0330333 -1619.02 253.131 124.238
lowerback 78.9638 -3.40587 11.5269
upperback 14.2017 -1.09175 -8.24743
thorax -4.40992 -1.02201 -13.7147
lowerneck 6.88487 7.90517 -7.26562
upperneck 10.1571 10.1342 -8.39049
head 2.19883 4.41314 -1.50576
rclavicle 1.59028e-014 -3.18055e-014
rhumerus -426.053 52.055 265.036
rradius 51.1027
rwrist 29.1486
rhand -31.8447 752.299
rfingers 7.12502
rthumb -5.09879 722.38
lclavicle 1.59028e-014 -3.18055e-014
lhumerus -553.353 164.601 -464.993
lradius 36.9837
lwrist -20.3729
lhand -68.3921 -753.253
lfingers 7.12502
lthumb -40.0982 -8.0565
rfemur -640.373 -141.466 596.52
rtibia 121.115
rfoot 10.158 -6.35508
rtoes 21.784
lfemur 92.1089 47.5396 120.88
ltibia 141.643
lfoot 53.6037 -41.8562
ltoes 26.504
178
root 15.7636 3.14329 0.0833312 -1619.8 253.919 124.309
lowerback 79.2101 -3.5442 11.3789
upperback 14.1332 -1.34484 -8.12956
thorax -4.50744 -1.18863 -13.396
lowerneck 7.05454 7.98026 -7.35991
upperneck 10.0793 10.2029 -8.62476
head 2.15672 4.44375 -1.57465
rclavicle -4.29375e-014 6.67916e-014
rhumerus -428.009 52.1444 262.814
rradius 51.0871
rwrist 29.482
rhand -32.0727 752.442
rfingers 7.12502
rthumb -5.31896 722.529
lclavicle -4.29375e-014 6.67916e-014
lhumerus -553.968 164.646 -464.311
lradius 37.2683
lwrist -19.8004
lhand -68.4028 -752.054
lfingers 7.12502
lthumb -40.1083 -6.86093
rfemur -639.652 -141.873 595.712
rtibia 120.547
rfoot 10.3582 -7.43551
rtoes 21.6844
lfemur 93.7227 51.2391 121.29
ltibia 140.527
lfoot 58.8852 -36.9719
ltoes 26.6204
179
root 15.8621 3.04103 0.13187 -1620.68 254.734 124.481
lowerback 79.4185 -3.64255 11.2029
upperback 14.0617 -1.5812 -8.0161
thorax -4.61118 -1.348 -13.0792
lowerneck 7.24249 8.05557 -7.42557
upperneck 10.0237 10.2714 -8.85438
head 2.12036 4.47436 -1.64736
rclavicle 5.24792e-014 -2.22639e-014
rhumerus -429.879 52.1135 260.664
rradius 51.0406
rwrist 29.7342
rhand -32.184 752.597
rfingers 7.12502
rthumb -5.42637 722.686
lclavicle 5.24792e-014 -2.22639e-014
lhumerus -554.531 164.844 -463.657
lradius 37.4898
lwrist -19.1004
lhand -68.4562 -751.164
lfingers 7.12502
lthumb -40.1586 -5.98607
rfemur -638.931 -142.295 594.887
rtibia 119.976
rfoot 10.5738 -8.44846
rtoes 21.7633
lfemur 95.1151 54.9136 121.635
ltibia 139.536
lfoot 63.3888 -31.0294
ltoes 26.9922
180
root 15.9599 2.93846 0.178491 -1621.55 255.505 124.683
lowerback 79.5502 -3.78076 11.0697
upperback 13.9976 -1.8289 -7.92486
thorax -4.71593 -1.5048 -12.8022
lowerneck 7.36455 8.12152 -7.52886
upperneck 10.0495 10.3346 -8.9719
head 2.11288 4.49632 -1.67457
rclavicle -3.65764e-014 1.08139e-013
rhumerus -431.695 52.013 258.499
rradius 50.9917
rwrist 29.8955
rhand -32.1509 752.654
rfingers 7.12502
rthumb -5.39444 722.743
lclavicle -3.65764e-014 1.08139e-013
lhumerus -555.041 165.204 -463.069
lradius 37.6467
lwrist -18.2709
lhand -68.443 -750.112
lfingers 7.12502
lthumb -40.1461 -4.93056
rfemur -638.249 -142.691 594.092
rtibia 119.394
rfoot 10.8204 -9.44561
rtoes 22.0997
lfemur 96.2781 58.6231 121.889
ltibia 138.686
lfoot 67.003 -23.7973
ltoes 27.4857
181
root 16.0592 2.83687 0.224013 -1622.42 256.256 124.89
lowerback 79.6516 -3.92346 10.9503
upperback 13.893 -2.06004 -7.82682
thorax -4.86607 -1.65387 -12.5283
lowerneck 7.48973 8.18338 -7.68721
upperneck 10.1684 10.3889 -8.98366
head 2.12609 4.50698 -1.65818
rclavicle -2.70347e-014 2.22639e-014
rhumerus -433.278 51.6859 256.594
rradius 50.8438
rwrist 30.1371
rhand -32.1203 752.877
rfingers 7.12502
rthumb -5.36492 722.965
lclavicle -2.70347e-014 2.22639e-014
lhumerus -555.571 165.677 -462.504
lradius 37.754
lwrist -17.3135
lhand -68.4692 -749.378
lfingers 7.12502
lthumb -40.1708 -4.20418
rfemur -637.528 -143.114 593.295
rtibia 118.756
rfoot 11.0642 -10.4
rtoes 22.5962
lfemur 97.3486 62.3527 122.166
ltibia 137.958
lfoot 69.6284 -15.6335
ltoes 27.9981
182
root 16.1586 2.73341 0.268103 -1623.29 256.997 125.125
lowerback 79.6285 -4.04992 10.8448
upperback 13.8628 -2.27944 -7.72484
thorax -4.94065 -1.79329 -12.2613
lowerneck 7.44847 8.22525 -7.8413
upperneck 10.3618 10.4479 -8.99408
head 2.1923 4.5111 -1.63447
rclavicle 8.90555e-014 -8.5875e-014
rhumerus -434.367 51.1988 255.173
rradius 50.6396
rwrist 30.5228
rhand -32.0902 753.247
rfingers 7.12502
rthumb -5.33584 723.334
lclavicle 8.90555e-014 -8.5875e-014
lhumerus -555.992 166.242 -461.93
lradius 37.857
lwrist -16.322
lhand -68.4625 -748.006
lfingers 7.12502
lthumb -40.1645 -2.82993
rfemur -636.83 -143.549 592.534
rtibia 118.087
rfoot 11.3272 -11.3418
rtoes 23.3003
lfemur 98.4197 66.0891 122.528
ltibia 137.355
lfoot 71.1889 -6.57949
ltoes 28.2789
183
root 16.2574 2.62814 0.309934 -1624.07 257.704 125.252
lowerback 79.5677 -4.18292 10.758
upperback 13.8311 -2.48822 -7.60656
thorax -5.01562 -1.92862 -11.9858
lowerneck 7.35774 8.26585 -7.99421
upperneck 10.6094 10.5152 -8.96513
head 2.28273 4.5148 -1.59572
rclavicle 3.33958e-014 -1.36764e-013
rhumerus -435.335 50.6792 253.903
rradius 50.4552
rwrist 30.8387
rhand -32.0734 753.615
rfingers 7.12502
rthumb -5.31957 723.702
lclavicle 3.33958e-014 -1.36764e-013
lhumerus -556.367 166.83 -461.377
lradius 37.9271
lwrist -15.2267
lhand -68.4064 -747.054
lfingers 7.12502
lthumb -40.1117 -1.86198
rfemur -636.09 -143.953 591.803
rtibia 117.355
rfoot 11.5792 -12.2582
rtoes 24.1748
lfemur 99.5408 69.8359 123.04
ltibia 136.869
lfoot 71.6399 2.75506
ltoes 28.2891
184
root 16.356 2.52124 0.350384 -1624.89 258.39 125.421
lowerback 79.4256 -4.31649 10.7115
upperback 13.8425 -2.67292 -7.48719
thorax -5.04237 -2.04746 -11.7363
lowerneck 7.19996 8.28354 -8.09511
upperneck 10.8536 10.5686 -8.93942
head 2.38618 4.51296 -1.56324
rclavicle -3.02153e-014 -3.18055e-015
rhumerus -436.286 50.2181 252.652
rradius 50.3491
rwrist 31.0068
rhand -32.2614 753.984
rfingers 7.12502
rthumb -5.50116 724.076
lclavicle -3.02153e-014 -3.18055e-015
lhumerus -556.681 167.634 -460.83
lradius 38.0126
lwrist -14.0027
lhand -68.3087 -745.65
lfingers 7.12502
lthumb -40.0197 -0.429652
rfemur -635.359 -144.337 591.11
rtibia 116.573
rfoot 11.9049 -13.1141
rtoes 25.0275
lfemur 100.749 73.5837 123.699
ltibia 136.527
lfoot 70.9242 12.4691
ltoes 28.0436
185
root 16.4524 2.41493 0.388826 -1625.63 259.051 125.498
lowerback 79.1801 -4.42299 10.6793
upperback 13.9035 -2.82427 -7.33643
thorax -5.01287 -2.15212 -11.4699
lowerneck 7.01166 8.28921 -8.0835
upperneck 11.1477 10.6262 -8.9667
head 2.52194 4.51189 -1.56376
rclavicle 1.27222e-014 4.13472e-014
rhumerus -437.306 49.912 251.324
rradius 50.3254
rwrist 30.9426
rhand -32.5362 754.346
rfingers 7.12502
rthumb -5.76647 724.445
lclavicle 1.27222e-014 4.13472e-014
lhumerus -556.969 168.54 -460.286
lradius 38.1672
lwrist -12.6775
lhand -68.1291 -744.08
lfingers 7.12502
lthumb -39.8507 1.19113
rfemur -634.611 -144.647 590.487
rtibia 115.733
rfoot 12.2418 -13.9214
rtoes 25.8506
lfemur 102.056 77.3382 124.581
ltibia 136.333
lfoot 68.994 22.1647
ltoes 27.4324
186
root 16.5461 2.30791 0.425568 -1626.46 259.69 125.647
lowerback 78.8579 -4.51545 10.6535
upperback 14.0024 -2.96211 -7.17491
thorax -4.94389 -2.24969 -11.2005
lowerneck 6.91532 8.27752 -7.93725
upperneck 11.3662 10.6565 -9.08532
head 2.63009 4.50847 -1.6196
rclavicle 9.54166e-015 3.49861e-014
rhumerus -438.174 49.6232 250.11
rradius 50.2946
rwrist 30.8486
rhand -32.9394 754.741
rfingers 7.12502
rthumb -6.15571 724.85
lclavicle 9.54166e-015 3.49861e-014
lhumerus -557.254 169.568 -459.75
lradius 38.4024
lwrist -11.1845
lhand -67.8912 -742.595
lfingers 7.12502
lthumb -39.6268 2.74291
rfemur -633.801 -144.915 589.86
rtibia 114.822
rfoot 12.6113 -14.6745
rtoes 26.6056
lfemur 103.957 81.0883 126.102
ltibia 136.205
lfoot 65.6872 31.0697
ltoes 26.3663
187
root 16.6368 2.20253 0.459608 -1627.28 260.281 125.758
lowerback 78.4394 -4.6048 10.6483
upperback 14.1516 -3.0878 -6.99246
thorax -4.82117 -2.34122 -10.9214
lowerneck 6.91958 8.23925 -7.59293
upperneck 11.5219 10.6544 -9.35645
head 2.72094 4.50057 -1.76176
rclavicle 2.54444e-014 -7.95139e-015
rhumerus -438.845 49.3619 249.023
rradius 50.2259
rwrist 30.7627
rhand -33.4261 755.182
rfingers 7.12502
rthumb -6.62559 725.306
lclavicle 2.54444e-014 -7.95139e-015
lhumerus -557.572 170.758 -459.242
lradius 38.7636
lwrist -9.45141
lhand -67.5796 -741.165
lfingers 7.12502
lthumb -39.3332 4.25924
rfemur -632.925 -145.095 589.26
rtibia 113.839
rfoot 13.0055 -15.3837
rtoes 27.4949
lfemur 108.187 84.8474 130.004
ltibia 136.061
lfoot 61.4121 37.3357
ltoes 25.6881
188
root 16.726 2.10013 0.491279 -1628.19 260.855 125.93
lowerback 77.9826 -4.68922 10.6461
upperback 14.3229 -3.21121 -6.80598
thorax -4.67486 -2.43151 -10.6421
lowerneck 6.9765 8.18829 -7.08398
upperneck 11.6655 10.6444 -9.71834
head 2.8146 4.49575 -1.96398
rclavicle 6.36111e-015 4.77083e-014
rhumerus -439.348 49.0587 248.151
rradius 50.2317
rwrist 30.7426
rhand -33.9752 755.587
rfingers 7.12502
rthumb -7.15561 725.728
lclavicle 6.36111e-015 4.77083e-014
lhumerus -557.914 172.04 -458.757
lradius 39.2439
lwrist -7.60722
lhand -67.2429 -739.853
lfingers 7.12502
lthumb -39.0159 5.6621
rfemur -631.941 -145.19 588.666
rtibia 112.761
rfoot 13.4648 -16.0801
rtoes 28.1352
lfemur 133.204 88.4454 154.72
ltibia 135.813
lfoot 57.2116 40.1878
ltoes 25.802
189
root 16.8151 2.001 0.520779 -1629.11 261.392 126.059
lowerback 77.505 -4.799 10.6683
upperback 14.5234 -3.34921 -6.61234
thorax -4.49494 -2.52836 -10.3604
lowerneck 7.06471 8.13022 -6.49872
upperneck 11.7948 10.6302 -10.1614
head 2.90903 4.49196 -2.20981
rclavicle 1.43125e-014 1.27222e-014
rhumerus -439.592 48.6755 247.696
rradius 50.3789
rwrist 30.9545
rhand -34.5745 755.964
rfingers 7.12502
rthumb -7.73406 726.125
lclavicle 1.43125e-014 1.27222e-014
lhumerus -558.238 173.31 -458.278
lradius 39.7989
lwrist -5.6757
lhand -66.8785 -738.695
lfingers 7.12502
lthumb -38.6723 6.91817
rfemur -630.823 -145.15 588.096
rtibia 111.593
rfoot 14.0314 -16.6908
rtoes 28.5179
lfemur 80.8767 92.6505 102.171
ltibia 135.541
lfoot 53.7915 39.0218
ltoes 27.1067
190
root 16.9008 1.9064 0.547057 -1630.26 261.896 126.415
lowerback 76.9329 -4.8916 10.6775
upperback 14.7621 -3.48692 -6.40977
thorax -4.28 -2.62494 -10.0667
lowerneck 7.18137 8.0548 -5.83355
upperneck 11.9151 10.5993 -10.6666
head 3.00498 4.48367 -2.49485
rclavicle 3.18055e-015 9.54166e-014
rhumerus -439.484 48.2039 247.594
rradius 50.526
rwrist 31.2151
rhand -35.1311 756.377
rfingers 7.12502
rthumb -8.27131 726.559
lclavicle 3.18055e-015 9.54166e-014
lhumerus -558.549 174.532 -457.804
lradius 40.3874
lwrist -3.79497
lhand -66.4549 -737.752
lfingers 7.12502
lthumb -38.2725 7.97264
rfemur -629.654 -145.054 587.522
rtibia 110.383
rfoot 14.6136 -17.2746
rtoes 28.9113
lfemur 92.5097 96.3888 113.602
ltibia 135.256
lfoot 49.6638 39.3552
ltoes 27.7436
